<svg width="135" height="34" viewBox="0 0 135 34" fill="none" xmlns="http://www.w3.org/2000/svg">
<path d="M19.0748 1.78442H21.2716V8.50921H29.6683V1.78442H31.865V17.9791H29.6683V10.568H21.2716V17.9791H19.0748V1.78442Z" fill="#484743" stroke="#5A5A5A" stroke-width="0.0841019" stroke-miterlimit="10"/>
<path d="M37.0526 13.3131C37.0526 13.7874 37.1569 14.218 37.3621 14.6049C37.5673 14.9951 37.8398 15.3248 38.1728 15.6006C38.5092 15.8765 38.8961 16.0884 39.3402 16.2398C39.7808 16.3912 40.2384 16.4686 40.7127 16.4686C41.3519 16.4686 41.9103 16.3205 42.3813 16.0211C42.8522 15.7251 43.2896 15.3315 43.6865 14.8437L45.2407 16.0346C44.097 17.5148 42.4957 18.2549 40.4368 18.2549C39.5824 18.2549 38.8086 18.1102 38.1156 17.8209C37.4226 17.5316 36.8339 17.1313 36.3529 16.62C35.8718 16.1086 35.5017 15.5064 35.2427 14.8134C34.9837 14.1204 34.8525 13.3703 34.8525 12.5595C34.8525 11.7488 34.9938 11.0019 35.2764 10.3056C35.5589 9.61258 35.9458 9.01042 36.4437 8.49908C36.9382 7.98774 37.5303 7.58741 38.2166 7.2981C38.9028 7.00879 39.6496 6.86414 40.457 6.86414C41.4192 6.86414 42.2299 7.03234 42.8926 7.36875C43.5553 7.70515 44.1003 8.14248 44.5276 8.6841C44.9548 9.22572 45.2643 9.83461 45.4527 10.5142C45.6444 11.1937 45.7386 11.8833 45.7386 12.5831V13.3164H37.0459L37.0526 13.3131ZM43.5486 11.6647C43.5318 11.2072 43.4611 10.7866 43.3299 10.4065C43.1987 10.0264 43.007 9.69332 42.748 9.41074C42.4889 9.12816 42.166 8.90613 41.7757 8.74802C41.3855 8.58654 40.9314 8.50917 40.4133 8.50917C39.8952 8.50917 39.4478 8.60336 39.0307 8.79511C38.6101 8.98687 38.2569 9.23244 37.9676 9.53858C37.6783 9.84471 37.4529 10.1845 37.2914 10.5579C37.13 10.9313 37.0526 11.3014 37.0526 11.668H43.5486V11.6647Z" fill="#484743" stroke="#5A5A5A" stroke-width="0.0841019" stroke-miterlimit="10"/>
<path d="M48.3758 0.684326H50.4346V17.979H48.3758V0.684326Z" fill="#484743" stroke="#5A5A5A" stroke-width="0.0841019" stroke-miterlimit="10"/>
<path d="M53.3851 3.24765C53.3851 2.83723 53.5332 2.48064 53.8326 2.1846C54.132 1.88857 54.4852 1.73718 54.8956 1.73718C55.306 1.73718 55.6626 1.8852 55.9586 2.1846C56.2547 2.48401 56.4061 2.83723 56.4061 3.24765C56.4061 3.65807 56.258 4.01466 55.9586 4.3107C55.6592 4.60674 55.306 4.75812 54.8956 4.75812C54.4852 4.75812 54.1286 4.6101 53.8326 4.3107C53.5365 4.0113 53.3851 3.65807 53.3851 3.24765ZM53.8662 7.13652H55.925V17.9789H53.8662V7.13652Z" fill="#484743" stroke="#5A5A5A" stroke-width="0.0841019" stroke-miterlimit="10"/>
<path d="M58.67 12.5596C58.67 11.7657 58.8181 11.0256 59.1175 10.3393C59.4135 9.65302 59.8239 9.05085 60.342 8.53279C60.8601 8.01472 61.469 7.60766 62.172 7.30826C62.8718 7.01222 63.6287 6.86084 64.4361 6.86084C65.2434 6.86084 66.0004 7.00886 66.7001 7.30826C67.3998 7.6043 68.0121 8.01472 68.5302 8.53279C69.0482 9.05085 69.4553 9.65302 69.7547 10.3393C70.0507 11.0256 70.2021 11.7657 70.2021 12.5596C70.2021 13.3535 70.0541 14.097 69.7547 14.79C69.4586 15.483 69.0482 16.0851 68.5302 16.5965C68.0121 17.1078 67.3998 17.5115 66.7001 17.8075C65.997 18.1036 65.2434 18.255 64.4361 18.255C63.6287 18.255 62.8718 18.1069 62.172 17.8075C61.469 17.5115 60.8601 17.1078 60.342 16.5965C59.8239 16.0851 59.4169 15.483 59.1175 14.79C58.8214 14.097 58.67 13.3535 58.67 12.5596ZM60.8668 12.5596C60.8668 13.1079 60.9509 13.6159 61.1191 14.0801C61.2873 14.5444 61.5228 14.9413 61.8289 15.271C62.135 15.6007 62.5085 15.8597 62.9491 16.0481C63.3898 16.2399 63.8877 16.3341 64.4361 16.3341C64.9844 16.3341 65.4789 16.2399 65.923 16.0481C66.3637 15.8564 66.7371 15.5973 67.0432 15.271C67.3494 14.9447 67.5848 14.5477 67.753 14.0801C67.9212 13.6159 68.0054 13.1079 68.0054 12.5596C68.0054 12.0112 67.9212 11.5033 67.753 11.039C67.5848 10.5748 67.3494 10.1778 67.0432 9.84814C66.7371 9.52182 66.3637 9.26279 65.923 9.07104C65.4789 8.87928 64.9844 8.78509 64.4361 8.78509C63.8877 8.78509 63.3898 8.87928 62.9491 9.07104C62.5051 9.26279 62.1317 9.52182 61.8289 9.84814C61.5228 10.1778 61.2873 10.5714 61.1191 11.039C60.9509 11.5033 60.8668 12.0112 60.8668 12.5596Z" fill="#484743" stroke="#5A5A5A" stroke-width="0.0841019" stroke-miterlimit="10"/>
<path d="M73.7916 14.5947C74.1886 15.1902 74.6966 15.6275 75.3122 15.9101C75.9312 16.1927 76.567 16.334 77.223 16.334C77.5897 16.334 77.9631 16.2768 78.3432 16.1624C78.7234 16.048 79.0699 15.8764 79.3827 15.6477C79.6956 15.4189 79.9512 15.1363 80.1497 14.7999C80.3482 14.4635 80.4458 14.0767 80.4458 13.6326C80.4458 13.0069 80.2473 12.5326 79.8503 12.2029C79.4534 11.8766 78.9622 11.6007 78.3735 11.3787C77.7848 11.1566 77.1456 10.9447 76.4526 10.7395C75.7596 10.5343 75.1171 10.2483 74.5317 9.88166C73.943 9.51498 73.4518 9.02382 73.0549 8.40483C72.6579 7.78584 72.4594 6.95155 72.4594 5.8986C72.4594 5.42763 72.5637 4.92301 72.7689 4.38813C72.9741 3.85324 73.2971 3.36545 73.7412 2.92475C74.1818 2.48406 74.7504 2.11401 75.4467 1.81461C76.1397 1.51857 76.974 1.36719 77.953 1.36719C78.8377 1.36719 79.6821 1.48829 80.4929 1.73387C81.3002 1.97945 82.01 2.47397 82.6189 3.22079L80.836 4.84564C80.5601 4.4184 80.1733 4.07527 79.6687 3.81623C79.164 3.5572 78.5922 3.426 77.953 3.426C77.3138 3.426 76.8361 3.50674 76.4324 3.66485C76.0287 3.82633 75.7024 4.03153 75.4602 4.28384C75.2146 4.53615 75.0431 4.80527 74.9455 5.09458C74.8446 5.38389 74.7975 5.65302 74.7975 5.89523C74.7975 6.5815 74.996 7.1063 75.3929 7.47298C75.7899 7.83967 76.281 8.13571 76.8697 8.36446C77.4551 8.59322 78.0976 8.79843 78.7906 8.98345C79.4836 9.16511 80.1262 9.42078 80.7115 9.75046C81.2969 10.0801 81.7914 10.5208 82.1883 11.0759C82.5853 11.6343 82.7838 12.398 82.7838 13.3736C82.7838 14.1507 82.6358 14.8538 82.3364 15.4795C82.0403 16.1052 81.64 16.63 81.1354 17.0572C80.6308 17.4845 80.0387 17.8108 79.3524 18.0395C78.6662 18.2683 77.9328 18.3827 77.1557 18.3827C76.1196 18.3827 75.1339 18.201 74.2054 17.8343C73.2736 17.4676 72.5368 16.9058 71.9851 16.1422L73.7916 14.588V14.5947Z" fill="#484743" stroke="#5A5A5A" stroke-width="0.0841019" stroke-miterlimit="10"/>
<path d="M93.2595 10.0196C92.8794 9.62262 92.4791 9.32322 92.0585 9.11464C91.638 8.90944 91.1402 8.80515 90.5615 8.80515C89.9829 8.80515 89.5052 8.90944 89.0847 9.11464C88.6642 9.31985 88.3143 9.60244 88.0317 9.96239C87.7492 10.3223 87.5372 10.7328 87.3926 11.197C87.2479 11.6612 87.1739 12.1457 87.1739 12.6503C87.1739 13.1549 87.258 13.6292 87.4262 14.08C87.5944 14.5308 87.8299 14.9244 88.136 15.2574C88.4422 15.5939 88.8055 15.8562 89.2327 16.048C89.66 16.2398 90.141 16.3339 90.6725 16.3339C91.2512 16.3339 91.7491 16.2297 92.1595 16.0245C92.5699 15.8192 92.9534 15.5165 93.3033 15.1195L94.7666 16.5829C94.2317 17.1783 93.6128 17.6056 92.9029 17.8646C92.1931 18.1236 91.4429 18.2548 90.649 18.2548C89.8113 18.2548 89.0443 18.1169 88.3513 17.8444C87.6583 17.5686 87.0595 17.1851 86.5549 16.6905C86.0503 16.196 85.6634 15.6006 85.3876 14.9076C85.1117 14.2146 84.9772 13.4476 84.9772 12.6099C84.9772 11.7723 85.1151 11.0019 85.3876 10.2988C85.6634 9.59907 86.0469 8.99354 86.5415 8.49229C87.036 7.98768 87.6314 7.59745 88.3244 7.31486C89.0174 7.03228 89.7912 6.89099 90.6456 6.89099C91.4396 6.89099 92.1965 7.03228 92.9231 7.31486C93.6464 7.59745 94.2755 8.02805 94.8104 8.60667L93.2562 10.0263L93.2595 10.0196Z" fill="#484743" stroke="#5A5A5A" stroke-width="0.0841019" stroke-miterlimit="10"/>
<path d="M96.0044 12.5596C96.0044 11.7657 96.1524 11.0256 96.4518 10.3393C96.7512 9.65302 97.1583 9.05085 97.6763 8.53279C98.1944 8.01472 98.8033 7.60766 99.5064 7.30826C100.206 7.01222 100.963 6.86084 101.77 6.86084C102.578 6.86084 103.335 7.00886 104.034 7.30826C104.734 7.6043 105.346 8.01472 105.864 8.53279C106.383 9.05085 106.79 9.65302 107.089 10.3393C107.388 11.0256 107.536 11.7657 107.536 12.5596C107.536 13.3535 107.388 14.097 107.089 14.79C106.793 15.483 106.383 16.0851 105.864 16.5965C105.346 17.1078 104.734 17.5115 104.034 17.8075C103.335 18.1036 102.578 18.255 101.77 18.255C100.963 18.255 100.206 18.1069 99.5064 17.8075C98.8033 17.5115 98.1944 17.1078 97.6763 16.5965C97.1583 16.0851 96.7512 15.483 96.4518 14.79C96.1558 14.097 96.0044 13.3535 96.0044 12.5596ZM98.2011 12.5596C98.2011 13.1079 98.2852 13.6159 98.4534 14.0801C98.6216 14.5444 98.8571 14.9413 99.1633 15.271C99.4694 15.6007 99.8428 15.8597 100.283 16.0481C100.724 16.2399 101.222 16.3341 101.77 16.3341C102.319 16.3341 102.813 16.2399 103.257 16.0481C103.698 15.8564 104.071 15.5973 104.378 15.271C104.684 14.9447 104.919 14.5477 105.087 14.0801C105.256 13.6159 105.34 13.1079 105.34 12.5596C105.34 12.0112 105.256 11.5033 105.087 11.039C104.919 10.5748 104.684 10.1778 104.378 9.84814C104.071 9.52182 103.698 9.26279 103.257 9.07104C102.813 8.87928 102.319 8.78509 101.77 8.78509C101.222 8.78509 100.724 8.87928 100.283 9.07104C99.8394 9.26279 99.466 9.52182 99.1633 9.84814C98.8571 10.1778 98.6216 10.5714 98.4534 11.039C98.2852 11.5033 98.2011 12.0112 98.2011 12.5596Z" fill="#484743" stroke="#5A5A5A" stroke-width="0.0841019" stroke-miterlimit="10"/>
<path d="M110.117 7.13669H112.176V8.6909H112.223C112.62 8.11228 113.165 7.66149 113.858 7.3419C114.551 7.02232 115.264 6.86084 115.997 6.86084C116.835 6.86084 117.595 7.0055 118.275 7.29481C118.954 7.58412 119.533 7.98781 120.014 8.50587C120.495 9.02394 120.865 9.62947 121.124 10.3258C121.383 11.0188 121.514 11.7623 121.514 12.5562C121.514 13.3501 121.383 14.1171 121.124 14.8101C120.865 15.5031 120.495 16.1053 120.014 16.6167C119.533 17.128 118.954 17.5283 118.275 17.8176C117.595 18.1069 116.838 18.2516 115.997 18.2516C115.22 18.2516 114.487 18.0868 113.8 17.7604C113.114 17.4341 112.589 16.9867 112.223 16.4215H112.176V24.428H110.117V7.13669ZM115.745 8.78509C115.197 8.78509 114.699 8.87928 114.258 9.07104C113.814 9.26279 113.44 9.52182 113.138 9.84814C112.832 10.1778 112.596 10.5714 112.428 11.039C112.26 11.5033 112.176 12.0112 112.176 12.5596C112.176 13.1079 112.26 13.6159 112.428 14.0801C112.596 14.5444 112.832 14.9413 113.138 15.271C113.444 15.6007 113.817 15.8597 114.258 16.0481C114.699 16.2399 115.197 16.3341 115.745 16.3341C116.293 16.3341 116.791 16.2399 117.232 16.0481C117.672 15.8564 118.046 15.5973 118.352 15.271C118.658 14.9447 118.894 14.5477 119.062 14.0801C119.23 13.6159 119.314 13.1079 119.314 12.5596C119.314 12.0112 119.23 11.5033 119.062 11.039C118.894 10.5748 118.658 10.1778 118.352 9.84814C118.046 9.52182 117.672 9.26279 117.232 9.07104C116.788 8.87928 116.293 8.78509 115.745 8.78509Z" fill="#484743" stroke="#5A5A5A" stroke-width="0.0841019" stroke-miterlimit="10"/>
<path d="M125.649 13.3131C125.649 13.7874 125.753 14.218 125.958 14.6049C126.163 14.9951 126.436 15.3248 126.769 15.6006C127.105 15.8765 127.492 16.0884 127.936 16.2398C128.377 16.3912 128.834 16.4686 129.309 16.4686C129.948 16.4686 130.506 16.3205 130.977 16.0211C131.452 15.7251 131.886 15.3315 132.283 14.8437L133.837 16.0346C132.693 17.5148 131.092 18.2549 129.033 18.2549C128.178 18.2549 127.405 18.1102 126.712 17.8209C126.019 17.5316 125.43 17.1313 124.949 16.62C124.468 16.1086 124.098 15.5064 123.839 14.8134C123.58 14.1204 123.449 13.3703 123.449 12.5595C123.449 11.7488 123.59 11.0019 123.872 10.3056C124.155 9.61258 124.545 9.01042 125.04 8.49908C125.534 7.98774 126.126 7.58741 126.813 7.2981C127.499 7.00879 128.246 6.86414 129.053 6.86414C130.015 6.86414 130.826 7.03234 131.489 7.36875C132.151 7.70515 132.696 8.14248 133.124 8.6841C133.551 9.22572 133.86 9.83461 134.049 10.5142C134.241 11.1937 134.335 11.8833 134.335 12.5831V13.3164H125.642L125.649 13.3131ZM132.145 11.6647C132.131 11.2072 132.057 10.7866 131.926 10.4065C131.795 10.0264 131.603 9.69332 131.344 9.41074C131.085 9.12816 130.762 8.90613 130.372 8.74802C129.982 8.58991 129.527 8.50917 129.009 8.50917C128.491 8.50917 128.044 8.60336 127.627 8.79511C127.206 8.98687 126.853 9.23244 126.564 9.53858C126.274 9.84471 126.049 10.1845 125.888 10.5579C125.726 10.9313 125.649 11.3014 125.649 11.668H132.145V11.6647Z" fill="#484743" stroke="#5A5A5A" stroke-width="0.0841019" stroke-miterlimit="10"/>
<path d="M11.6573 4.51258L11.0215 5.4007L10.3857 6.28881C10.8701 6.63531 11.2873 7.05918 11.627 7.54698C13.2586 9.89846 12.68 13.128 10.3285 14.7596C7.97701 16.3911 4.7475 15.8125 3.11593 13.461C1.48435 11.1095 2.06297 7.88002 4.41446 6.24844L3.7921 5.35023L3.16975 4.45203C2.47675 4.93309 1.87122 5.53189 1.38006 6.21817C-0.99161 9.53178 -0.227965 14.1338 3.08565 16.5021C6.3959 18.8705 10.998 18.1034 13.3663 14.7932C15.7346 11.4829 14.9676 6.88089 11.6573 4.51258ZM10.3857 6.29218C12.7136 7.95739 13.2519 11.1936 11.5867 13.5216C9.92145 15.8495 6.68521 16.3878 4.35727 14.7225C2.02933 13.0573 1.49108 9.82109 3.15629 7.49315C3.50279 7.00872 3.92667 6.59158 4.41446 6.25181L3.16639 4.45539C-0.177504 6.7766 -1.00507 11.3686 1.31951 14.7125C3.64072 18.0563 8.23268 18.8805 11.5766 16.5593C14.9205 14.2381 15.7447 9.64616 13.4234 6.30227C12.9424 5.60927 12.3436 5.00373 11.6573 4.51258L10.3857 6.29218Z" fill="url(#paint0_linear_1006_31812)"/>
<path d="M8.51523 2.43359H6.3454V8.93635H8.51523V2.43359Z" fill="url(#paint1_linear_1006_31812)"/>
<path d="M105.934 28.6303C106.403 28.6303 106.667 28.2972 106.667 27.8431C106.667 27.3889 106.403 27.0559 105.937 27.0559C105.728 27.0559 105.543 27.1558 105.455 27.3042V26.4413H105.162V28.6061H105.455V28.379C105.543 28.5304 105.731 28.6303 105.934 28.6303ZM105.901 28.3729C105.616 28.3729 105.431 28.161 105.431 27.8431C105.431 27.5252 105.616 27.3133 105.901 27.3133C106.182 27.3133 106.37 27.5252 106.37 27.8431C106.37 28.161 106.182 28.3729 105.901 28.3729Z" fill="#404040"/>
<path d="M108.247 27.0801H107.944L107.542 28.2246L107.142 27.0801H106.839L107.406 28.6212L107.2 29.2237H107.481L107.711 28.5516L108.247 27.0801Z" fill="#404040"/>
<g clip-path="url(#clip0_1006_31812)">
<path fill-rule="evenodd" clip-rule="evenodd" d="M113.857 30.1214C113.455 30.6112 112.848 30.9261 112.169 30.9261C110.973 30.9261 110.006 29.9523 110.006 28.7628C110.006 27.5732 110.979 26.5878 112.169 26.5878C112.848 26.5878 113.455 26.9085 113.857 27.3925V26.7277H114.326V30.8736H113.857V30.1214ZM112.169 27.0543C111.244 27.0543 110.487 27.8181 110.487 28.7511C110.487 29.6841 111.244 30.4538 112.169 30.4538C113.094 30.4538 113.857 29.6899 113.857 28.7511C113.857 27.8123 113.1 27.0543 112.169 27.0543ZM132.117 30.9261C132.796 30.9261 133.403 30.617 133.805 30.1214V30.8736H134.274V26.7277H133.805V27.3925C133.403 26.9085 132.796 26.5878 132.117 26.5878C130.933 26.5878 129.954 27.5499 129.954 28.7511C129.954 29.9523 130.921 30.9261 132.117 30.9261ZM130.435 28.7511C130.435 27.8181 131.192 27.0543 132.123 27.0543C133.054 27.0543 133.811 27.8123 133.811 28.7511C133.811 29.6899 133.048 30.4538 132.123 30.4538C131.192 30.4538 130.435 29.6841 130.435 28.7511ZM122.245 28.8094C122.245 30.0106 123.212 30.9844 124.408 30.9844C125.597 30.9844 126.571 30.0164 126.571 28.8211C126.571 27.6199 125.597 26.6461 124.408 26.6461C123.218 26.6461 122.245 27.6082 122.245 28.8094ZM122.719 28.8152C122.719 27.8764 123.483 27.1126 124.408 27.1126C125.333 27.1126 126.096 27.8764 126.096 28.8152C126.096 29.754 125.333 30.5179 124.408 30.5179C123.476 30.5179 122.719 29.754 122.719 28.8152ZM115.107 29.0543C115.107 30.0631 115.972 30.8853 117.036 30.8853C118.099 30.8853 118.964 30.0689 118.964 29.0543V26.7277H118.496V29.0543C118.496 29.8182 117.841 30.4363 117.036 30.4363C116.231 30.4363 115.576 29.8124 115.576 29.0543V26.7277H115.107V29.0543ZM120.214 26.7277V27.3167C120.485 26.9318 120.887 26.7277 121.434 26.7277H122.083V27.1767H121.927L121.831 27.1765C121.639 27.1758 121.444 27.175 121.254 27.2L121.227 27.2044L121.227 27.2044C121.162 27.2147 121.095 27.2255 121.031 27.2409C120.887 27.2817 120.755 27.3516 120.641 27.4508C120.551 27.5266 120.479 27.6257 120.425 27.7248C120.352 27.8589 120.298 28.0106 120.274 28.1738C120.244 28.3429 120.226 28.5353 120.214 28.8619V30.8619H119.752V26.7277H120.214ZM127.875 27.3167V26.7277H127.412V30.8619H127.875V28.8619C127.887 28.5353 127.905 28.3429 127.935 28.1738C127.959 28.0106 128.013 27.8589 128.085 27.7248C128.139 27.6257 128.211 27.5266 128.301 27.4508C128.416 27.3516 128.548 27.2817 128.692 27.2409C128.755 27.2255 128.823 27.2147 128.887 27.2044C128.896 27.2029 128.905 27.2015 128.914 27.2C129.105 27.175 129.3 27.1758 129.492 27.1765C129.524 27.1766 129.555 27.1767 129.587 27.1767H129.743V26.7277H129.094C128.548 26.7277 128.145 26.9318 127.875 27.3167Z" fill="#404040"/>
</g>
<defs>
<linearGradient id="paint0_linear_1006_31812" x1="12.1081" y1="16.1523" x2="2.63486" y2="4.86244" gradientUnits="userSpaceOnUse">
<stop stop-color="#DC8427"/>
<stop offset="0.41" stop-color="#EE9721"/>
<stop offset="0.74" stop-color="#F9A924"/>
<stop offset="1" stop-color="#F9AC38"/>
</linearGradient>
<linearGradient id="paint1_linear_1006_31812" x1="7.42863" y1="8.93635" x2="7.42863" y2="2.43359" gradientUnits="userSpaceOnUse">
<stop stop-color="#DC8427"/>
<stop offset="0.41" stop-color="#EE9721"/>
<stop offset="0.74" stop-color="#F9A924"/>
<stop offset="0.9" stop-color="#FBBD6D"/>
<stop offset="1" stop-color="#FDCA9B"/>
</linearGradient>
<clipPath id="clip0_1006_31812">
<rect width="24.2213" height="4.3733" fill="white" transform="translate(110.005 26.5876)"/>
</clipPath>
</defs>
</svg>
