<?xml version="1.0" encoding="UTF-8"?>
<svg id="Calque_1" data-name="Calque 1" xmlns="http://www.w3.org/2000/svg" xmlns:xlink="http://www.w3.org/1999/xlink" viewBox="0 0 456.0052 161.4701">
  <a xlink:href="25.5529411764706">
    <path id="fullLogo" d="M52.2287,32.6938c.826-.88,1.9809-1.3808,3.1885-1.3808h21.6517c-4.3095-12.3988-16.0668-21.3129-29.9331-21.3129-17.5155,0-31.7144,14.1987-31.7144,31.7139,0,8.2391,3.1684,15.72,8.3202,21.3588l28.4869-30.3789Z" style="fill: #fdb350;"/>
  </a>
  <a xlink:href="64.3686274509804">
    <polygon id="fullLogo-2" data-name="fullLogo" points="44.429 61.0609 55.1004 49.5319 43.4096 48.4874 33.6207 58.9266 44.429 61.0609" style="fill: #3b59b8;"/>
  </a>
  <a xlink:href="64.3686274509804">
    <polygon id="fullLogo-3" data-name="fullLogo" points="45.1131 63.1605 33.8366 75.3421 45.1319 79.0807 57.4215 65.5912 45.1131 63.1605" style="fill: #3b59b8;"/>
  </a>
  <a xlink:href="64.3686274509804">
    <path id="fullLogo-4" data-name="fullLogo" d="M74.819,49.3579l18.1921,1.6255,12.2889-13.7609c.5314-.5951.109-1.5386-.6888-1.5386h-17.3331l-12.459,13.674Z" style="fill: #3b59b8;"/>
  </a>
  <a xlink:href="64.3686274509804">
    <polygon id="fullLogo-5" data-name="fullLogo" points="72.4087 49.1425 84.6707 35.6839 70.5471 35.6839 59.1827 47.9607 72.4087 49.1425" style="fill: #3b59b8;"/>
  </a>
  <a xlink:href="64.3686274509804">
    <polygon id="fullLogo-6" data-name="fullLogo" points="32.3967 76.8966 20.0507 90.2344 30.3004 95.3592 43.7109 80.6411 32.3967 76.8966" style="fill: #3b59b8;"/>
  </a>
  <a xlink:href="64.3686274509804">
    <polygon id="fullLogo-7" data-name="fullLogo" points="59.6321 66.0276 47.1354 79.7437 62.7215 84.9022 76.5864 69.3757 59.6321 66.0276" style="fill: #3b59b8;"/>
  </a>
  <a xlink:href="64.3686274509804">
    <polygon id="fullLogo-8" data-name="fullLogo" points="73.1883 51.1482 61.1485 64.3627 78.0778 67.7058 91.4092 52.7763 73.1883 51.1482" style="fill: #3b59b8;"/>
  </a>
  <a xlink:href="64.3686274509804">
    <path id="fullLogo-9" data-name="fullLogo" d="M45.7131,81.304l-13.6215,14.9508,12.4855,6.2426c.9921.4961,2.1936.2661,2.9324-.5613l13.8109-15.4664-15.6074-5.1658Z" style="fill: #3b59b8;"/>
  </a>
  <a xlink:href="64.3686274509804">
    <polygon id="fullLogo-10" data-name="fullLogo" points="58.9392 63.9264 70.7768 50.9327 57.5282 49.7488 46.6496 61.4997 58.9392 63.9264" style="fill: #3b59b8;"/>
  </a>
  <a xlink:href="64.3686274509804">
    <path id="fullLogo-11" data-name="fullLogo" d="M30.3857,76.2308l-9.9158-3.2819-10.1776,10.8538c-.4943.5271-.3415,1.3816.3048,1.7048l7.6571,3.8287,12.1314-13.1054Z" style="fill: #3b59b8;"/>
  </a>
  <a xlink:href="64.3686274509804">
    <polygon id="fullLogo-12" data-name="fullLogo" points="31.8243 74.6763 42.8912 62.7217 32.0666 60.5841 21.9236 71.3991 31.8243 74.6763" style="fill: #3b59b8;"/>
  </a>
  <a xlink:href="64.3686274509804">
    <path id="fullLogo-13" data-name="fullLogo" d="M56.7562,47.7439l11.1635-12.06h-11.3895c-.7104,0-1.3892.294-1.8752.8122l-9.5708,10.2049,11.6719,1.0429Z" style="fill: #3b59b8;"/>
  </a>
  <a xlink:href="77.3878431372549">
    <polygon id="fullLogo-14" data-name="fullLogo" points="90.2303 70.5765 96.7583 63.2812 88.8274 62.1692 83.7183 67.8902 82.6508 69.0855 90.2303 70.5765" style="fill: #25348d;"/>
  </a>
  <a xlink:href="77.3878431372549">
    <polygon id="fullLogo-15" data-name="fullLogo" points="98.257 63.4915 91.6639 70.8588 99.6906 72.4376 106.6104 64.6628 98.257 63.4915" style="fill: #25348d;"/>
  </a>
  <a xlink:href="77.3878431372549">
    <polygon id="fullLogo-16" data-name="fullLogo" points="82.1508 79.6059 89.2549 71.666 81.6778 70.1753 81.4592 70.4199 74.9459 77.7134 82.1508 79.6059" style="fill: #25348d;"/>
  </a>
  <a xlink:href="77.3878431372549">
    <polygon id="fullLogo-17" data-name="fullLogo" points="90.6897 71.9482 83.5168 79.9648 91.1959 81.9822 98.7201 73.5279 90.6897 71.9482" style="fill: #25348d;"/>
  </a>
  <a xlink:href="77.3878431372549">
    <polygon id="fullLogo-18" data-name="fullLogo" points="106.5822 54.187 99.2668 62.363 107.6153 63.5337 115.244 54.961 106.5822 54.187" style="fill: #25348d;"/>
  </a>
  <a xlink:href="77.3878431372549">
    <polygon id="fullLogo-19" data-name="fullLogo" points="82.6004 91.6401 90.2585 83.0359 82.5746 81.0174 75.2469 89.2066 82.6004 91.6401" style="fill: #25348d;"/>
  </a>
  <a xlink:href="77.3878431372549">
    <path id="fullLogo-20" data-name="fullLogo" d="M91.6221,83.3943l-7.722,8.6762,7.3434,2.4304c.8422.2787,1.7695.0309,2.3604-.6308l7.2008-8.0635-9.1827-2.4124Z" style="fill: #25348d;"/>
  </a>
  <a xlink:href="77.3878431372549">
    <polygon id="fullLogo-21" data-name="fullLogo" points="81.2086 80.6586 74.0062 78.7663 68.7349 84.6687 67.0925 86.5075 73.946 88.7757 81.2086 80.6586" style="fill: #25348d;"/>
  </a>
  <a xlink:href="77.3878431372549">
    <polygon id="fullLogo-22" data-name="fullLogo" points="118.2315 66.2925 108.1067 64.8727 101.1229 72.7194 110.7933 74.6218 118.2315 66.2925" style="fill: #25348d;"/>
  </a>
  <a xlink:href="77.3878431372549">
    <polygon id="fullLogo-23" data-name="fullLogo" points="100.1525 73.8097 92.5607 82.3406 101.7458 84.7537 109.5857 75.9742 109.8204 75.7116 100.1525 73.8097" style="fill: #25348d;"/>
  </a>
  <a xlink:href="77.3878431372549">
    <path id="fullLogo-24" data-name="fullLogo" d="M116.8041,55.1002l-7.6925,8.6432,10.1286,1.4202,6.7796-7.5923c.5628-.6303.1667-1.6327-.675-1.7079l-8.5406-.7632Z" style="fill: #25348d;"/>
  </a>
  <a xlink:href="77.3878431372549">
    <polygon id="fullLogo-25" data-name="fullLogo" points="97.7681 62.1528 105.0196 54.0475 96.7411 53.3076 89.836 61.0405 97.7681 62.1528" style="fill: #25348d;"/>
  </a>
  <path id="fullLogo-26" data-name="fullLogo" d="M142.9418,108.2398h6.4282c3.2365,0,5.2282,2.1494,5.2282,5.092,0,3.0334-2.0372,5.2062-5.2282,5.2062h-3.7804v5.545h-2.6479v-15.8431ZM148.917,116.1379c1.9015,0,2.9652-.9722,2.9652-2.8062,0-1.7419-1.1318-2.7154-2.9652-2.7154h-3.3274v5.5216h3.3274Z" style="fill: #25348d;"/>
  <path id="fullLogo-27" data-name="fullLogo" d="M172.6064,108.2398v15.8431h-2.6479v-6.9714h-7.4017v6.9714h-2.6479v-15.8431h2.6479v6.4496h7.4017v-6.4496h2.6479Z" style="fill: #25348d;"/>
  <path id="fullLogo-28" data-name="fullLogo" d="M177.9183,116.1613c0-4.5494,2.3312-8.1253,7.3108-8.1253,4.9563,0,7.3102,3.5759,7.3102,8.1253,0,4.526-2.3539,8.1253-7.3102,8.1253-4.9797,0-7.3108-3.5993-7.3108-8.1253ZM189.8234,116.1613c0-3.1917-1.3123-5.6812-4.5942-5.6812-3.3046,0-4.5948,2.4895-4.5948,5.6812s1.3129,5.6812,4.5948,5.6812,4.5942-2.4895,4.5942-5.6812Z" style="fill: #25348d;"/>
  <path id="fullLogo-29" data-name="fullLogo" d="M201.0431,110.6384h-4.7753v-2.3987h12.2217v2.3987h-4.7753v13.4444h-2.6712v-13.4444Z" style="fill: #25348d;"/>
  <path id="fullLogo-30" data-name="fullLogo" d="M212.2154,116.1613c0-4.5494,2.3312-8.1253,7.3108-8.1253,4.9563,0,7.3102,3.5759,7.3102,8.1253,0,4.526-2.3539,8.1253-7.3102,8.1253-4.9797,0-7.3108-3.5993-7.3108-8.1253ZM224.1204,116.1613c0-3.1917-1.3123-5.6812-4.5942-5.6812-3.3046,0-4.5948,2.4895-4.5948,5.6812s1.3129,5.6812,4.5948,5.6812,4.5942-2.4895,4.5942-5.6812Z" style="fill: #25348d;"/>
  <path id="fullLogo-31" data-name="fullLogo" d="M230.2021,108.4656v-.2258h2.9198l4.3008,12.5164h.0902l4.21-12.5164h2.9646v.2258l-5.7487,15.6172h-2.9873l-5.7494-15.6172Z" style="fill: #25348d;"/>
  <path id="fullLogo-32" data-name="fullLogo" d="M248.0525,116.1613c0-4.5494,2.3312-8.1253,7.3108-8.1253,4.9563,0,7.3102,3.5759,7.3102,8.1253,0,4.526-2.3539,8.1253-7.3102,8.1253-4.9797,0-7.3108-3.5993-7.3108-8.1253ZM259.9575,116.1613c0-3.1917-1.3123-5.6812-4.5942-5.6812-3.3046,0-4.5948,2.4895-4.5948,5.6812s1.3129,5.6812,4.5948,5.6812,4.5942-2.4895,4.5942-5.6812Z" style="fill: #25348d;"/>
  <path id="fullLogo-33" data-name="fullLogo" d="M267.9861,108.2398h2.6479v13.4444h7.4692v2.3987h-10.1171v-15.8431Z" style="fill: #25348d;"/>
  <path id="fullLogo-34" data-name="fullLogo" d="M283.7494,110.6384h-4.7753v-2.3987h12.2217v2.3987h-4.7753v13.4444h-2.6712v-13.4444Z" style="fill: #25348d;"/>
  <path id="fullLogo-35" data-name="fullLogo" d="M307.821,123.857v.2258h-2.8971l-1.2448-3.6668h-6.473l-1.2448,3.6668h-2.8069v-.2258l5.6585-15.6172h3.3274l5.6806,15.6172ZM302.8874,118.0849l-2.3993-7.061h-.0909l-2.3987,7.061h4.8888Z" style="fill: #25348d;"/>
  <path id="fullLogo-36" data-name="fullLogo" d="M312.5671,108.2398h2.6706v15.8431h-2.6706v-15.8431Z" style="fill: #25348d;"/>
  <path id="fullLogo-37" data-name="fullLogo" d="M320.5418,116.1834c0-4.7532,2.5122-8.1474,7.2881-8.1474,3.9153,0,6.3374,2.4441,6.6314,5.7942h-2.716c-.2038-1.9015-1.4485-3.3501-3.9153-3.3501-3.2365,0-4.5721,2.5129-4.5721,5.7033s1.3356,5.6812,4.5721,5.6812c2.3766,0,3.5986-1.3356,3.9381-3.2138h2.6933c-.3848,3.2592-2.7387,5.6358-6.6314,5.6358-4.7986,0-7.2881-3.4176-7.2881-8.1033Z" style="fill: #25348d;"/>
  <path id="fullLogo-38" data-name="fullLogo" d="M141.8099,146.2185h2.6933c.1363,1.8561,1.4485,2.875,3.5993,2.875,2.3766,0,3.4851-.7918,3.4851-2.2637,0-1.2448-.8599-1.8561-2.4441-2.1949l-2.3084-.4984c-2.7387-.588-4.5046-1.8107-4.5046-4.4806s2.1955-4.4365,5.7942-4.4365c3.4857,0,5.9077,1.9911,5.9305,4.9115h-2.6933c-.0909-1.4485-1.0864-2.5129-3.2819-2.5129-1.969,0-3.0107.7243-3.0107,2.0378,0,.9955.7243,1.629,2.3091,1.969l2.1501.4517c2.9419.6113,4.798,1.9924,4.798,4.7078,0,2.8296-2.082,4.6857-6.2238,4.6857-4.0062,0-6.1563-2.082-6.2926-5.2516Z" style="fill: #25348d;"/>
  <path id="fullLogo-39" data-name="fullLogo" d="M158.6181,143.3448c0-4.5494,2.3312-8.1253,7.3108-8.1253,4.9563,0,7.3102,3.5759,7.3102,8.1253,0,4.526-2.3539,8.1253-7.3102,8.1253-4.9797,0-7.3108-3.5993-7.3108-8.1253ZM170.5231,143.3448c0-3.1917-1.3123-5.6812-4.5942-5.6812-3.3046,0-4.5948,2.4895-4.5948,5.6812s1.3129,5.6812,4.5948,5.6812,4.5942-2.4895,4.5942-5.6812Z" style="fill: #25348d;"/>
  <path id="fullLogo-40" data-name="fullLogo" d="M178.5517,135.4233h10.5246v2.3987h-7.8768v4.4819h7.1525v2.3987h-7.1525v6.5639h-2.6479v-15.8431Z" style="fill: #25348d;"/>
  <path id="fullLogo-41" data-name="fullLogo" d="M197.8942,137.8219h-4.7753v-2.3987h12.2217v2.3987h-4.7753v13.4444h-2.6712v-13.4444Z" style="fill: #25348d;"/>
  <path id="fullLogo-42" data-name="fullLogo" d="M208.681,135.6491v-.2258h2.7387l2.6485,11.9725h.0902l3.0781-11.9725h2.8517l3.1236,11.9725h.0909l2.6024-11.9725h2.7387v.2258l-3.8024,15.6172h-3.1009l-3.01-11.7246h-.0909l-3.0781,11.7246h-3.1002l-3.7804-15.6172Z" style="fill: #25348d;"/>
  <path id="fullLogo-43" data-name="fullLogo" d="M245.6382,151.0405v.2258h-2.8971l-1.2448-3.6668h-6.473l-1.2448,3.6668h-2.8069v-.2258l5.6585-15.6172h3.3274l5.6806,15.6172ZM240.7046,145.2684l-2.3993-7.061h-.0909l-2.3987,7.061h4.8888Z" style="fill: #25348d;"/>
  <path id="fullLogo-44" data-name="fullLogo" d="M263.0363,151.0405v.2258h-3.01l-3.8251-5.9759h-3.169v5.9759h-2.6479v-15.8431h6.6995c3.2819,0,5.1835,2.1949,5.1835,4.8882,0,2.3091-1.2902,4.0069-3.2819,4.6623l4.051,6.0667ZM253.0322,142.8918h3.8933c1.7652,0,2.6031-1.063,2.6031-2.557,0-1.4719-.8606-2.5129-2.6031-2.5129h-3.8933v5.0699Z" style="fill: #25348d;"/>
  <path id="fullLogo-45" data-name="fullLogo" d="M267.8271,135.4233h10.683v2.3987h-8.0345v4.0743h7.3329v2.3987h-7.3329v4.5948h8.0345v2.3766h-10.683v-15.8431Z" style="fill: #25348d;"/>
  <a xlink:href="77.3878431372549">
    <path id="fullLogo-46" data-name="fullLogo" d="M170.4532,23.8307h-12.338v11.2274h10.0363c6.7196,0,10.6774,3.4988,10.6774,9.7559,0,6.7208-3.6821,10.0327-10.6774,10.0327h-10.0363v11.322h12.338c12.9768,0,21.2601-9.0202,21.2601-21.3547,0-11.9631-8.0988-20.9833-21.2601-20.9833Z" style="fill: #25348d;"/>
  </a>
  <a xlink:href="77.3878431372549">
    <polygon id="fullLogo-47" data-name="fullLogo" points="155.4503 54.8467 155.4503 35.058 155.4503 23.8307 142.8414 23.8307 142.8414 88.2568 155.4503 88.2568 155.4503 69.8236 155.4503 66.1687 155.4503 54.8467" style="fill: #25348d;"/>
  </a>
  <a xlink:href="77.3878431372549">
    <polygon id="fullLogo-48" data-name="fullLogo" points="227.0644 72.8871 210.9579 23.8307 196.7841 23.8307 196.7841 24.7509 219.9781 88.2568 232.1115 88.2568 227.0644 72.8871" style="fill: #25348d;"/>
  </a>
  <a xlink:href="77.3878431372549">
    <polygon id="fullLogo-49" data-name="fullLogo" points="243.3554 23.8307 228.6435 69.155 234.8154 87.9501 257.7137 24.7509 257.7137 23.8307 243.3554 23.8307" style="fill: #25348d;"/>
  </a>
  <a xlink:href="77.3878431372549">
    <path id="fullLogo-50" data-name="fullLogo" d="M288.4932,57.7943l-7.3631-1.5495c-5.7367-1.2396-9.2248-3.6431-9.2248-8.0621,0-5.703,4.0642-8.282,10.2563-8.6127v-6.2231c-11.057.4734-17.3095,6.0884-17.3095,14.8359,0,8.294,5.0388,12.6349,14.4174,14.6505l7.906,1.7056c5.8905,1.2396,9.6885,3.565,9.6885,8.8357,0,6.0388-4.2416,9.1045-12.0388,9.3996v6.1443c11.8318-.3745,19.0932-6.1748,19.0932-15.5439,0-8.294-5.3487-13.4866-15.4252-15.5802Z" style="fill: #25348d;"/>
  </a>
  <a xlink:href="77.3878431372549">
    <path id="fullLogo-51" data-name="fullLogo" d="M284.8253,39.5846c7.4435.4138,10.9707,4.2724,11.264,9.8401h6.8982c-.0745-9.2909-7.1868-15.6674-18.1623-16.0839v6.2438Z" style="fill: #25348d;"/>
  </a>
  <a xlink:href="77.3878431372549">
    <path id="fullLogo-52" data-name="fullLogo" d="M282.1615,82.7413c-7.5843-.4586-11.8294-4.4227-12.1937-10.7625h-6.8982c.2981,9.8475,6.8568,16.4433,19.092,16.9286v-6.1661Z" style="fill: #25348d;"/>
  </a>
  <a xlink:href="77.3878431372549">
    <path id="fullLogo-53" data-name="fullLogo" d="M379.4725,39.5846c7.4435.4138,10.9707,4.2724,11.264,9.8401h6.8982c-.0745-9.2909-7.1868-15.6674-18.1623-16.0839v6.2438Z" style="fill: #25348d;"/>
  </a>
  <a xlink:href="77.3878431372549">
    <path id="fullLogo-54" data-name="fullLogo" d="M376.8088,82.7413c-7.5843-.4586-11.8294-4.4227-12.1937-10.7625h-6.8982c.2981,9.8475,6.8568,16.4433,19.092,16.9286v-6.1661Z" style="fill: #25348d;"/>
  </a>
  <a xlink:href="77.3878431372549">
    <path id="fullLogo-55" data-name="fullLogo" d="M383.1405,57.7943l-7.3631-1.5495c-5.7367-1.2396-9.2248-3.6431-9.2248-8.0621,0-5.703,4.0642-8.282,10.2563-8.6127v-6.2231c-11.057.4734-17.3095,6.0884-17.3095,14.8359,0,8.294,5.0388,12.6349,14.4174,14.6505l7.906,1.7056c5.8905,1.2396,9.6885,3.565,9.6885,8.8357,0,6.0388-4.2416,9.1045-12.0388,9.3996v6.1443c11.8318-.3745,19.0932-6.1748,19.0932-15.5439,0-8.294-5.3487-13.4866-15.4252-15.5802Z" style="fill: #25348d;"/>
  </a>
  <a xlink:href="77.3878431372549">
    <polygon id="fullLogo-56" data-name="fullLogo" points="429.1855 33.9982 405.5443 33.9982 405.5443 40.201 422.3641 40.201 422.3641 88.2568 429.1855 88.2568 429.1855 45.0356 429.1855 40.201 429.1855 33.9982" style="fill: #25348d;"/>
  </a>
  <a xlink:href="77.3878431372549">
    <rect id="fullLogo-57" data-name="fullLogo" x="431.8492" y="33.9982" width="14.156" height="6.2027" style="fill: #25348d;"/>
  </a>
  <a xlink:href="77.3878431372549">
    <polygon id="fullLogo-58" data-name="fullLogo" points="346.3972 33.9982 332.6812 56.7887 336.2817 62.7256 353.8383 34.7742 353.8383 33.9982 346.3972 33.9982" style="fill: #25348d;"/>
  </a>
  <a xlink:href="77.3878431372549">
    <polygon id="fullLogo-59" data-name="fullLogo" points="330.972 59.112 315.7798 33.9982 308.1837 33.9982 308.1837 34.7742 327.64 65.6246 327.64 88.2568 334.4601 88.2568 334.4601 65.6246 334.4601 64.8772 330.972 59.112" style="fill: #25348d;"/>
  </a>
</svg>